<svg
  width="21"
  height="20"
  viewBox="0 0 21 20"
  fill="none"
  xmlns="http://www.w3.org/2000/svg"
>
  <path
    d="M8.75 12.5L8.75 10"
    stroke="#333333"
    stroke-width="2"
    stroke-linecap="round"
  />
  <path
    d="M12.25 12.5L12.25 10"
    stroke="#333333"
    stroke-width="2"
    stroke-linecap="round"
  />
  <path
    d="M2.625 5.83301H18.375V5.83301C17.7939 5.83301 17.5033 5.83301 17.264 5.89295C16.5482 6.07226 15.9892 6.6312 15.8099 7.34705C15.75 7.58633 15.75 7.87689 15.75 8.45801V12.6663C15.75 14.552 15.75 15.4948 15.1642 16.0806C14.5784 16.6663 13.6356 16.6663 11.75 16.6663H9.25C7.36438 16.6663 6.42157 16.6663 5.83579 16.0806C5.25 15.4948 5.25 14.552 5.25 12.6663V8.45801C5.25 7.87689 5.25 7.58633 5.19006 7.34705C5.01075 6.6312 4.45181 6.07226 3.73596 5.89295C3.49668 5.83301 3.20612 5.83301 2.625 5.83301V5.83301Z"
    stroke="#333333"
    stroke-width="2"
    stroke-linecap="round"
  />
  <path
    d="M8.80963 2.80883C8.90934 2.72023 9.12904 2.64194 9.43467 2.5861C9.74029 2.53027 10.1148 2.5 10.5 2.5C10.8852 2.5 11.2597 2.53027 11.5653 2.5861C11.871 2.64194 12.0907 2.72023 12.1904 2.80883"
    stroke="#333333"
    stroke-width="2"
    stroke-linecap="round"
  />
</svg>
