<svg width="48" height="48" viewBox="0 0 48 48" fill="none" xmlns="http://www.w3.org/2000/svg">
<path d="M11.1001 44C9.63343 44 8.39176 43.4917 7.3751 42.475C6.35843 41.4583 5.8501 40.2167 5.8501 38.75V32.5H12.2001V4L15.2001 7L18.2001 4L21.1501 7L24.1501 4L27.1501 7L30.1501 4L33.1501 7L36.1501 4L39.1501 7L42.1501 4V38.75C42.1501 40.2167 41.6418 41.4583 40.6251 42.475C39.6084 43.4917 38.3668 44 36.9001 44H11.1001ZM36.9001 41C37.5668 41 38.1084 40.7917 38.5251 40.375C38.9418 39.9583 39.1501 39.4167 39.1501 38.75V9H15.2001V32.5H34.6501V38.75C34.6501 39.4167 34.8584 39.9583 35.2751 40.375C35.6918 40.7917 36.2334 41 36.9001 41ZM17.8501 16.9V13.9H29.8501V16.9H17.8501ZM17.8501 23.6V20.6H29.8501V23.6H17.8501ZM34.5001 16.9C34.1001 16.9 33.7501 16.75 33.4501 16.45C33.1501 16.15 33.0001 15.8 33.0001 15.4C33.0001 15 33.1501 14.65 33.4501 14.35C33.7501 14.05 34.1001 13.9 34.5001 13.9C34.9001 13.9 35.2501 14.05 35.5501 14.35C35.8501 14.65 36.0001 15 36.0001 15.4C36.0001 15.8 35.8501 16.15 35.5501 16.45C35.2501 16.75 34.9001 16.9 34.5001 16.9ZM34.5001 23.35C34.1001 23.35 33.7501 23.2 33.4501 22.9C33.1501 22.6 33.0001 22.25 33.0001 21.85C33.0001 21.45 33.1501 21.1 33.4501 20.8C33.7501 20.5 34.1001 20.35 34.5001 20.35C34.9001 20.35 35.2501 20.5 35.5501 20.8C35.8501 21.1 36.0001 21.45 36.0001 21.85C36.0001 22.25 35.8501 22.6 35.5501 22.9C35.2501 23.2 34.9001 23.35 34.5001 23.35ZM11.0501 41H31.6501V35.5H8.8501V38.75C8.8501 39.4167 9.05843 39.9583 9.4751 40.375C9.89176 40.7917 10.4168 41 11.0501 41ZM8.8501 41V35.5V41Z" fill="black"/>
</svg>
