 <svg width="60" height="60" viewBox="0 0 60 60" fill="none"
                                        xmlns="http://www.w3.org/2000/svg">
                                        <path d="M30 10L12.5 17.5L30 25L47.5 17.5L30 10Z" stroke="#333333"
                                            stroke-width="2.5" stroke-linejoin="round" />
                                        <path fill-rule="evenodd" clip-rule="evenodd"
                                            d="M19.1502 25.79L12.0076 28.8512C11.548 29.0481 11.25 29.5001 11.25 30.0001C11.25 30.5001 11.548 30.9521 12.0076 31.149L29.5076 38.649C29.822 38.7838 30.178 38.7838 30.4924 38.649L47.9924 31.149C48.452 30.9521 48.75 30.5001 48.75 30.0001C48.75 29.5001 48.452 29.0481 47.9924 28.8512L40.8498 25.79L37.6765 27.15L44.3268 30.0001L30 36.1401L15.6732 30.0001L22.3235 27.15L19.1502 25.79Z"
                                            fill="#333333" />
                                        <path fill-rule="evenodd" clip-rule="evenodd"
                                            d="M19.1502 38.29L12.0076 41.3512C11.548 41.5481 11.25 42.0001 11.25 42.5001C11.25 43.0001 11.548 43.4521 12.0076 43.649L29.5076 51.149C29.822 51.2838 30.178 51.2838 30.4924 51.149L47.9924 43.649C48.452 43.4521 48.75 43.0001 48.75 42.5001C48.75 42.0001 48.452 41.5481 47.9924 41.3512L40.8498 38.29L37.6765 39.65L44.3268 42.5001L30 48.6401L15.6732 42.5001L22.3235 39.65L19.1502 38.29Z"
                                            fill="#333333" />
                                    </svg>