 <svg width="60" height="60" viewBox="0 0 60 60" fill="none"
                                        xmlns="http://www.w3.org/2000/svg">
                                        <path fill-rule="evenodd" clip-rule="evenodd"
                                            d="M14.502 40.5167C15.2563 41.6286 16.1318 42.6614 17.1165 43.5948C19.7438 46.0849 23.0363 47.7603 26.5957 48.4184C30.1552 49.0764 33.8291 48.6889 37.173 47.3027C40.5168 45.9165 43.3873 43.591 45.4372 40.6076C47.4871 37.6241 48.6285 34.1106 48.7234 30.4921C48.8182 26.8735 47.8624 23.305 45.9717 20.2183C44.0809 17.1316 41.3362 14.6589 38.0695 13.0994C35.9524 12.0887 33.6747 11.4896 31.3569 11.3213L32.0367 13.8584C33.7532 14.0749 35.4331 14.5649 37.0104 15.3179C39.8483 16.6727 42.2328 18.8208 43.8754 21.5024C45.5179 24.1839 46.3483 27.2841 46.2659 30.4277C46.1835 33.5712 45.1919 36.6236 43.4111 39.2154C41.6302 41.8073 39.1365 43.8275 36.2316 45.0318C33.3266 46.236 30.1349 46.5727 27.0427 46.001C23.9504 45.4293 21.09 43.9738 18.8077 41.8105C18.1627 41.1992 17.5717 40.5388 17.0391 39.8369L14.502 40.5167Z"
                                            fill="#333333" />
                                        <path
                                            d="M14.7805 10.1652C16.7337 8.66646 18.8939 7.46722 21.1895 6.60278C22.222 6.214 22.7382 6.01962 23.2229 6.26855C23.7077 6.51748 23.8602 7.0868 24.1653 8.22545L29.3633 27.6245C29.6632 28.7438 29.8132 29.3035 29.5586 29.7445C29.304 30.1854 28.7443 30.3354 27.6249 30.6353L8.22593 35.8332C7.08729 36.1383 6.51797 36.2909 6.06003 35.9956C5.60208 35.7002 5.51231 35.156 5.33278 34.0675C4.93358 31.6472 4.89204 29.1767 5.21339 26.7359C5.64191 23.4809 6.70735 20.3422 8.34888 17.499C9.9904 14.6558 12.1759 12.1638 14.7805 10.1652Z"
                                            stroke="#333333" stroke-width="2.45833" />
                                    </svg>