<svg width="48" height="48" viewBox="0 0 48 48" fill="none" xmlns="http://www.w3.org/2000/svg">
<path d="M24 37.2C24.7667 37.2 25.425 36.9167 25.975 36.35C26.525 35.7833 26.8 35.1167 26.8 34.35H21.15C21.15 35.1167 21.4333 35.7833 22 36.35C22.5667 36.9167 23.2333 37.2 24 37.2ZM14.3 31.35H33.65V28.35H31.65V22.6C31.65 20.6 31.125 18.7583 30.075 17.075C29.025 15.3917 27.55 14.3667 25.65 14V12.5C25.65 12.0333 25.4917 11.6417 25.175 11.325C24.8583 11.0083 24.4667 10.85 24 10.85C23.5333 10.85 23.1333 11.0083 22.8 11.325C22.4667 11.6417 22.3 12.0333 22.3 12.5V14C20.4 14.3667 18.925 15.35 17.875 16.95C16.825 18.55 16.3 20.3333 16.3 22.3V28.35H14.3V31.35ZM19.3 28.35V22C19.3 20.6667 19.75 19.5167 20.65 18.55C21.55 17.5833 22.6667 17.1 24 17.1C25.3 17.1 26.4 17.5833 27.3 18.55C28.2 19.5167 28.65 20.6667 28.65 22V28.35H19.3ZM24 44C21.2667 44 18.6833 43.475 16.25 42.425C13.8167 41.375 11.6917 39.9417 9.875 38.125C8.05833 36.3083 6.625 34.1833 5.575 31.75C4.525 29.3167 4 26.7167 4 23.95C4 21.2167 4.525 18.6333 5.575 16.2C6.625 13.7667 8.05833 11.65 9.875 9.85C11.6917 8.05 13.8167 6.625 16.25 5.575C18.6833 4.525 21.2833 4 24.05 4C26.7833 4 29.3667 4.525 31.8 5.575C34.2333 6.625 36.35 8.05 38.15 9.85C39.95 11.65 41.375 13.7667 42.425 16.2C43.475 18.6333 44 21.2333 44 24C44 26.7333 43.475 29.3167 42.425 31.75C41.375 34.1833 39.95 36.3083 38.15 38.125C36.35 39.9417 34.2333 41.375 31.8 42.425C29.3667 43.475 26.7667 44 24 44ZM24.05 41C28.75 41 32.75 39.3417 36.05 36.025C39.35 32.7083 41 28.6833 41 23.95C41 19.25 39.35 15.25 36.05 11.95C32.75 8.65 28.7333 7 24 7C19.3 7 15.2917 8.65 11.975 11.95C8.65833 15.25 7 19.2667 7 24C7 28.7 8.65833 32.7083 11.975 36.025C15.2917 39.3417 19.3167 41 24.05 41Z" fill="black"/>
</svg>
