<svg width="48" height="48" viewBox="0 0 48 48" fill="none" xmlns="http://www.w3.org/2000/svg">
<g clip-path="url(#clip0_820_4697)">
<path d="M22.5 30H13.5C12.3065 30 11.1619 30.4741 10.318 31.318C9.47411 32.1619 9 33.3065 9 34.5V37.5H12V34.5C12 34.1022 12.158 33.7206 12.4393 33.4393C12.7206 33.158 13.1022 33 13.5 33H22.5C22.8978 33 23.2794 33.158 23.5607 33.4393C23.842 33.7206 24 34.1022 24 34.5V37.5H27V34.5C27 33.3065 26.5259 32.1619 25.682 31.318C24.8381 30.4741 23.6935 30 22.5 30Z" fill="black"/>
<path d="M18 28.5C19.1867 28.5 20.3467 28.1481 21.3334 27.4888C22.3201 26.8295 23.0892 25.8925 23.5433 24.7961C23.9974 23.6997 24.1162 22.4933 23.8847 21.3295C23.6532 20.1656 23.0818 19.0965 22.2426 18.2574C21.4035 17.4182 20.3344 16.8468 19.1705 16.6153C18.0067 16.3838 16.8003 16.5026 15.7039 16.9567C14.6075 17.4109 13.6705 18.1799 13.0112 19.1666C12.3519 20.1533 12 21.3133 12 22.5C12 24.0913 12.6321 25.6174 13.7574 26.7426C14.8826 27.8679 16.4087 28.5 18 28.5ZM18 19.5C18.5933 19.5 19.1734 19.676 19.6667 20.0056C20.1601 20.3352 20.5446 20.8038 20.7716 21.352C20.9987 21.9001 21.0581 22.5033 20.9424 23.0853C20.8266 23.6672 20.5409 24.2018 20.1213 24.6213C19.7018 25.0409 19.1672 25.3266 18.5853 25.4424C18.0033 25.5581 17.4001 25.4987 16.852 25.2716C16.3038 25.0446 15.8352 24.6601 15.5056 24.1667C15.1759 23.6734 15 23.0933 15 22.5C15 21.7044 15.3161 20.9413 15.8787 20.3787C16.4413 19.8161 17.2044 19.5 18 19.5Z" fill="black"/>
<path d="M42 28.5V42H6V12H24V9H6C5.20435 9 4.44129 9.31607 3.87868 9.87868C3.31607 10.4413 3 11.2044 3 12V42C3 42.7957 3.31607 43.5587 3.87868 44.1213C4.44129 44.6839 5.20435 45 6 45H42C42.7957 45 43.5587 44.6839 44.1213 44.1213C44.6839 43.5587 45 42.7957 45 42V28.5H42Z" fill="black"/>
<path d="M39 28.5H30V31.5H39V28.5Z" fill="black"/>
<path d="M39 34.5H33V37.5H39V34.5Z" fill="black"/>
<path d="M48 15V12H44.8483C44.6549 11.0611 44.2822 10.1683 43.7505 9.37065L45.9855 7.13565L43.8645 5.01465L41.6295 7.24965C40.8318 6.71791 39.939 6.34509 39 6.15165V3H36V6.15165C35.0611 6.34507 34.1683 6.71783 33.3707 7.2495L31.1356 5.0145L29.0146 7.1355L31.2496 9.3705C30.7179 10.1682 30.3451 11.061 30.1517 12H27V15H30.1517C30.3451 15.9389 30.7178 16.8317 31.2495 17.6294L29.0145 19.8643L31.1355 21.9854L33.3705 19.7503C34.1682 20.2821 35.061 20.6549 36 20.8484V24H39V20.8484C39.9389 20.6549 40.8317 20.2822 41.6293 19.7505L43.8644 21.9855L45.9854 19.8645L43.7504 17.6295C44.2821 16.8318 44.6549 15.939 44.8483 15H48ZM37.5 18C36.61 18 35.74 17.7361 34.9999 17.2416C34.2599 16.7471 33.6831 16.0443 33.3425 15.2221C33.0019 14.3998 32.9128 13.495 33.0865 12.6221C33.2601 11.7492 33.6887 10.9474 34.318 10.318C34.9474 9.68868 35.7492 9.2601 36.6221 9.08647C37.495 8.91283 38.3998 9.00195 39.2221 9.34254C40.0443 9.68314 40.7471 10.2599 41.2416 10.9999C41.7361 11.74 42 12.61 42 13.5C41.9987 14.6931 41.5242 15.8369 40.6805 16.6805C39.8369 17.5242 38.6931 17.9987 37.5 18Z" fill="black"/>
</g>
<defs>
<clipPath id="clip0_820_4697">
<rect width="48" height="48" fill="white"/>
</clipPath>
</defs>
</svg>
