<svg width="48" height="48" viewBox="0 0 48 48" fill="none" xmlns="http://www.w3.org/2000/svg">
<g clip-path="url(#clip0_820_4715)">
<path d="M8.39276 35.3189C11.116 35.3189 13.3314 33.1034 13.3314 30.3802C13.3314 27.6569 11.1159 25.4414 8.39276 25.4414C5.66962 25.4414 3.4541 27.6569 3.4541 30.3802C3.4541 33.1034 5.66952 35.3189 8.39276 35.3189ZM8.39276 28.4106C9.47884 28.4106 10.3623 29.2942 10.3623 30.3803C10.3623 31.4663 9.47874 32.3499 8.39276 32.3499C7.30677 32.3499 6.42317 31.4663 6.42317 30.3803C6.42317 29.2942 7.30667 28.4106 8.39276 28.4106Z" fill="black"/>
<path d="M8.39287 38.1074C3.76498 38.1074 0 41.8725 0 46.5003V47.9848H16.7856V46.5003C16.7856 41.8725 13.0207 38.1074 8.39287 38.1074ZM3.17562 45.0158C3.82278 42.7444 5.91677 41.0765 8.39287 41.0765C10.869 41.0765 12.963 42.7445 13.6101 45.0158H3.17562Z" fill="black"/>
<path d="M39.6071 35.3189C42.3303 35.3189 44.5458 33.1034 44.5458 30.3802C44.5458 27.6569 42.3302 25.4414 39.6071 25.4414C36.884 25.4414 34.6685 27.6569 34.6685 30.3802C34.6685 33.1034 36.884 35.3189 39.6071 35.3189ZM39.6071 28.4106C40.6932 28.4106 41.5767 29.2942 41.5767 30.3803C41.5767 31.4663 40.6931 32.3499 39.6071 32.3499C38.5211 32.3499 37.6375 31.4663 37.6375 30.3803C37.6375 29.2942 38.5211 28.4106 39.6071 28.4106Z" fill="black"/>
<path d="M39.6072 38.1074C34.9793 38.1074 31.2144 41.8724 31.2144 46.5003V47.9848H48.0001V46.5003C48.0001 41.8725 44.2351 38.1074 39.6072 38.1074ZM34.39 45.0158C35.0371 42.7444 37.1311 41.0765 39.6072 41.0765C42.0833 41.0765 44.1773 42.7445 44.8245 45.0158H34.39Z" fill="black"/>
<path d="M24.0002 9.89304C26.7234 9.89304 28.9388 7.67751 28.9388 4.95428C28.9388 2.23105 26.7234 0.015625 24.0002 0.015625C21.2769 0.015625 19.0615 2.23115 19.0615 4.95438C19.0615 7.67761 21.2769 9.89304 24.0002 9.89304ZM24.0002 2.9847C25.0863 2.9847 25.9698 3.86829 25.9698 4.95438C25.9698 6.04047 25.0862 6.92406 24.0002 6.92406C22.9142 6.92406 22.0306 6.04047 22.0306 4.95438C22.0306 3.86829 22.9141 2.9847 24.0002 2.9847Z" fill="black"/>
<path d="M32.3927 21.0745C32.3927 16.4466 28.6277 12.6816 23.9998 12.6816C19.3719 12.6816 15.6069 16.4466 15.6069 21.0745V22.5591H32.3926V21.0745H32.3927ZM18.7826 19.59C19.4297 17.3186 21.5237 15.6507 23.9998 15.6507C26.4759 15.6507 28.5699 17.3187 29.2171 19.59H18.7826Z" fill="black"/>
<path d="M25.4846 32.7538V26.0117H22.5155V32.7538L16.6768 36.1248L18.1613 38.6961L24.0001 35.325L29.8389 38.6961L31.3234 36.1248L25.4846 32.7538Z" fill="black"/>
</g>
<defs>
<clipPath id="clip0_820_4715">
<rect width="48" height="48" fill="white"/>
</clipPath>
</defs>
</svg>
